HIERARCHY
ROOT Hips
{
	OFFSET 0.000000 35.082581 0.000000
	CHANNELS 6 Xposition Yposition Zposition Xrotation Yrotation Zrotation 
	JOINT Spine
	{
		OFFSET 0.000000 6.876099 0.125700
		CHANNELS 3 Xrotation Yrotation Zrotation
		JOINT Spine1
		{
			OFFSET 0.000000 5.730043 0.104720
			CHANNELS 3 Xrotation Yrotation Zrotation
			JOINT Spine1_split
			{
				OFFSET 0.000000 5.730043 0.104720
				CHANNELS 3 Xrotation Yrotation Zrotation
				JOINT Spine2
				{
					OFFSET 0.000000 5.730043 0.104720
					CHANNELS 3 Xrotation Yrotation Zrotation
					JOINT Neck
					{
						OFFSET 0.000000 10.314075 0.188496
						CHANNELS 3 Xrotation Yrotation Zrotation
						JOINT Head
						{
							OFFSET 0.000000 7.643700 -2.377400
							CHANNELS 3 Xrotation Yrotation Zrotation
							JOINT HeadTop_End
							{
								OFFSET 0.000000 43.788605 -13.619600
								CHANNELS 3 Xrotation Yrotation Zrotation
								End Site
								{
									OFFSET 0.000000 0.000000 0.000000
								}
							}
						}
					}
					JOINT LeftShoulder
					{
						OFFSET 2.196100 4.412489 0.087492
						CHANNELS 3 Xrotation Yrotation Zrotation
						JOINT LeftShoulder_split
						{
							OFFSET 2.196100 4.412489 0.087492
							CHANNELS 3 Xrotation Yrotation Zrotation
							JOINT LeftArm
							{
								OFFSET 8.771219 -2.981674 -0.026999
								CHANNELS 3 Xrotation Yrotation Zrotation
								JOINT LeftForeArm
								{
									OFFSET 8.512804 0.000000 -0.000000
									CHANNELS 3 Xrotation Yrotation Zrotation
									JOINT LeftHand
									{
										OFFSET 18.484802 0.000000 -0.000000
										CHANNELS 3 Xrotation Yrotation Zrotation
										JOINT LeftHandThumb1
										{
											OFFSET 2.499420 -1.158070 2.653252
											CHANNELS 3 Xrotation Yrotation Zrotation
											JOINT LeftHandThumb2
											{
												OFFSET 2.370079 -1.368366 1.368366
												CHANNELS 3 Xrotation Yrotation Zrotation
												JOINT LeftHandThumb3
												{
													OFFSET 2.676727 -1.545410 1.545409
													CHANNELS 3 Xrotation Yrotation Zrotation
													JOINT LeftHandThumb4
													{
														OFFSET 1.692226 -0.977005 0.977007
														CHANNELS 3 Xrotation Yrotation Zrotation
														End Site
														{
															OFFSET 0.000000 0.000000 0.000000
														}
													}
												}
											}
										}
										JOINT LeftHandIndex1
										{
											OFFSET 7.924831 -0.457527 2.345128
											CHANNELS 3 Xrotation Yrotation Zrotation
											JOINT LeftHandIndex2
											{
												OFFSET 3.643303 0.000000 0.000000
												CHANNELS 3 Xrotation Yrotation Zrotation
												JOINT LeftHandIndex3
												{
													OFFSET 3.810799 0.000000 0.000000
													CHANNELS 3 Xrotation Yrotation Zrotation
													JOINT LeftHandIndex4
													{
														OFFSET 2.403702 0.000000 0.000000
														CHANNELS 3 Xrotation Yrotation Zrotation
														End Site
														{
															OFFSET 0.000000 0.000000 0.000000
														}
													}
												}
											}
										}
										JOINT LeftHandMiddle1
										{
											OFFSET 8.563995 0.000000 -0.000000
											CHANNELS 3 Xrotation Yrotation Zrotation
											JOINT LeftHandMiddle2
											{
												OFFSET 3.861618 0.000000 0.000000
												CHANNELS 3 Xrotation Yrotation Zrotation
												JOINT LeftHandMiddle3
												{
													OFFSET 3.701603 0.000000 0.000000
													CHANNELS 3 Xrotation Yrotation Zrotation
													JOINT LeftHandMiddle4
													{
														OFFSET 2.322544 0.000000 0.000000
														CHANNELS 3 Xrotation Yrotation Zrotation
														End Site
														{
															OFFSET 0.000000 0.000000 0.000000
														}
													}
												}
											}
										}
										JOINT LeftHandRing1
										{
											OFFSET 8.426460 -0.424637 -3.286992
											CHANNELS 3 Xrotation Yrotation Zrotation
											JOINT LeftHandRing2
											{
												OFFSET 3.126408 0.000000 0.000000
												CHANNELS 3 Xrotation Yrotation Zrotation
												JOINT LeftHandRing3
												{
													OFFSET 3.085026 0.000000 0.000000
													CHANNELS 3 Xrotation Yrotation Zrotation
													JOINT LeftHandRing4
													{
														OFFSET 1.644005 0.000000 0.000000
														CHANNELS 3 Xrotation Yrotation Zrotation
														End Site
														{
															OFFSET 0.000000 0.000000 0.000000
														}
													}
												}
											}
										}
									}
								}
							}
						}
					}
					JOINT RightShoulder
					{
						OFFSET -2.196100 4.412496 0.070690
						CHANNELS 3 Xrotation Yrotation Zrotation
						JOINT RightShoulder_split
						{
							OFFSET -2.196100 4.412496 0.070690
							CHANNELS 3 Xrotation Yrotation Zrotation
							JOINT RightArm
							{
								OFFSET -8.771282 -2.981682 -0.094208
								CHANNELS 3 Xrotation Yrotation Zrotation
								JOINT RightForeArm
								{
									OFFSET -8.494598 0.000000 0.000000
									CHANNELS 3 Xrotation Yrotation Zrotation
									JOINT RightHand
									{
										OFFSET -18.483803 0.000000 0.000001
										CHANNELS 3 Xrotation Yrotation Zrotation
										JOINT RightHandThumb1
										{
											OFFSET -2.527351 -1.008072 2.575253
											CHANNELS 3 Xrotation Yrotation Zrotation
											JOINT RightHandThumb2
											{
												OFFSET -2.321518 -1.340328 1.340329
												CHANNELS 3 Xrotation Yrotation Zrotation
												JOINT RightHandThumb3
												{
													OFFSET -2.657753 -1.534454 1.534455
													CHANNELS 3 Xrotation Yrotation Zrotation
													JOINT RightHandThumb4
													{
														OFFSET -1.807510 -1.043568 1.043567
														CHANNELS 3 Xrotation Yrotation Zrotation
														End Site
														{
															OFFSET 0.000000 0.000000 0.000000
														}
													}
												}
											}
										}
										JOINT RightHandIndex1
										{
											OFFSET -8.811420 0.015533 2.887987
											CHANNELS 3 Xrotation Yrotation Zrotation
											JOINT RightHandIndex2
											{
												OFFSET -3.537502 0.000000 0.000000
												CHANNELS 3 Xrotation Yrotation Zrotation
												JOINT RightHandIndex3
												{
													OFFSET -3.356201 0.000000 0.000000
													CHANNELS 3 Xrotation Yrotation Zrotation
													JOINT RightHandIndex4
													{
														OFFSET -1.933098 0.000000 0.000000
														CHANNELS 3 Xrotation Yrotation Zrotation
														End Site
														{
															OFFSET 0.000000 0.000000 0.000000
														}
													}
												}
											}
										}
										JOINT RightHandMiddle1
										{
											OFFSET -8.178135 0.000000 0.000000
											CHANNELS 3 Xrotation Yrotation Zrotation
											JOINT RightHandMiddle2
											{
												OFFSET -3.901302 0.000000 0.000000
												CHANNELS 3 Xrotation Yrotation Zrotation
												JOINT RightHandMiddle3
												{
													OFFSET -3.909599 0.000000 0.000000
													CHANNELS 3 Xrotation Yrotation Zrotation
													JOINT RightHandMiddle4
													{
														OFFSET -2.376003 0.000000 0.000000
														CHANNELS 3 Xrotation Yrotation Zrotation
														End Site
														{
															OFFSET 0.000000 0.000000 0.000000
														}
													}
												}
											}
										}
										JOINT RightHandRing1
										{
											OFFSET -7.559013 0.014137 -2.865403
											CHANNELS 3 Xrotation Yrotation Zrotation
											JOINT RightHandRing2
											{
												OFFSET -3.449306 0.000000 0.000000
												CHANNELS 3 Xrotation Yrotation Zrotation
												JOINT RightHandRing3
												{
													OFFSET -3.362106 0.000000 0.000000
													CHANNELS 3 Xrotation Yrotation Zrotation
													JOINT RightHandRing4
													{
														OFFSET -2.076401 0.000000 0.000000
														CHANNELS 3 Xrotation Yrotation Zrotation
														End Site
														{
															OFFSET 0.000000 0.000000 0.000000
														}
													}
												}
											}
										}
									}
								}
							}
						}
					}
				}
			}
		}
	}
	JOINT LeftUpLeg
	{
		OFFSET 10.205400 -3.823500 0.155100
		CHANNELS 3 Xrotation Yrotation Zrotation
		JOINT LeftLeg
		{
			OFFSET 0.708757 -12.982077 0.567790
			CHANNELS 3 Xrotation Yrotation Zrotation
			JOINT LeftFoot
			{
				OFFSET -0.708756 -10.717838 -2.184338
				CHANNELS 3 Xrotation Yrotation Zrotation
				JOINT LeftToeBase
				{
					OFFSET 0.108149 -7.191104 7.560241
					CHANNELS 3 Xrotation Yrotation Zrotation
					JOINT LeftToe_End
					{
						OFFSET 0.070230 0.081724 4.490308
						CHANNELS 3 Xrotation Yrotation Zrotation
						End Site
						{
							OFFSET 0.000000 0.000000 0.000000
						}
					}
				}
			}
		}
	}
	JOINT RightUpLeg
	{
		OFFSET -10.205400 -3.823500 0.005500
		CHANNELS 3 Xrotation Yrotation Zrotation
		JOINT RightLeg
		{
			OFFSET -0.708756 -12.982134 0.610632
			CHANNELS 3 Xrotation Yrotation Zrotation
			JOINT RightFoot
			{
				OFFSET 0.708754 -10.717769 -1.945823
				CHANNELS 3 Xrotation Yrotation Zrotation
				JOINT RightToeBase
				{
					OFFSET -0.108140 -7.191069 7.372968
					CHANNELS 3 Xrotation Yrotation Zrotation
					JOINT RightToe_End
					{
						OFFSET -0.070227 0.081735 4.479403
						CHANNELS 3 Xrotation Yrotation Zrotation
						End Site
						{
							OFFSET 0.000000 0.000000 0.000000
						}
					}
				}
			}
		}
	}
}
MOTION
Frames: 5
Frame Time: 0.016667
-0.216680 33.463825 -0.562544 -0.316535 -0.853252 0.794510 0.601490 0.533103 0.206753 0.948880 0.543752 -0.036077 0.000000 0.000000 0.000000 0.949055 0.535715 -0.036774 1.759489 -1.272664 -0.666066 -4.887637 -8.012346 2.592187 0.000000 0.000000 -0.000000 0.691653 -2.499316 -11.191466 0.000000 0.000000 0.000000 5.273940 -17.247117 -62.895292 0.000013 -21.850205 0.000008 -1.967804 -14.998023 7.080653 -0.666109 2.158554 4.837363 11.853340 25.414287 17.057482 -13.811986 3.541890 9.030656 -0.000001 -0.000002 0.000001 0.021807 -0.966719 -7.590979 0.267889 1.752963 -17.376532 0.057693 0.821041 -8.038830 -0.000001 -0.000001 0.000001 -0.077456 2.661815 -15.698691 0.268762 1.755782 -17.405223 0.300528 1.853958 -18.413095 -0.000002 0.000000 0.000001 0.137960 3.644574 -21.134832 0.386558 2.094645 -20.910460 0.283144 1.800892 -17.867592 -0.000004 0.000001 0.000002 0.450402 7.851261 13.847194 0.000000 0.000000 0.000000 5.786529 9.805993 61.054911 -0.000022 23.253224 0.000020 -0.662947 7.830455 -2.975899 -1.664533 -0.169088 -4.216930 12.708048 -29.838211 -16.127709 -15.551987 -3.555856 -12.703310 0.000001 -0.000002 0.000003 0.037623 1.264477 6.828375 0.213851 -1.396495 17.412944 0.046103 -0.654336 8.059113 0.000002 0.000002 0.000001 -0.135886 -2.206372 14.998788 0.214480 -1.398421 17.437702 0.239793 -1.476589 18.447084 -0.000002 -0.000001 -0.000003 0.031296 -3.078192 20.463793 0.308458 -1.668284 20.948521 0.225824 -1.434047 17.897102 -0.000000 -0.000002 -0.000002 -13.451468 11.388949 13.613732 22.269169 -11.160146 -0.852333 -10.119483 1.477299 -8.659882 -0.641592 0.000003 0.000001 -0.000000 0.000000 0.000000 -12.021831 -7.504564 -18.479423 22.586215 8.629214 4.845824 -11.696509 -2.010526 9.266987 0.000012 -0.000001 0.000002 0.000000 -0.000000 0.000000 
-0.217368 33.463757 -0.552055 -0.316534 -0.872902 0.794223 0.601487 0.533214 0.196125 0.948880 0.543752 -0.041390 0.000000 0.000000 0.000000 0.949055 0.535716 -0.036774 1.770464 -1.244366 -0.642450 -4.885037 -7.837789 2.577702 0.000000 0.000000 0.000000 0.691598 -2.499372 -11.192574 0.000000 0.000000 0.000000 5.373539 -17.224147 -62.870150 -0.000009 -21.977797 0.000006 -2.049708 -15.016712 7.242968 -0.708396 2.148811 4.824279 11.885529 25.397650 16.959744 -13.809150 3.410564 9.038952 -0.000003 -0.000001 -0.000002 0.004546 -0.960448 -7.844298 0.274110 1.772691 -17.578458 0.059491 0.833674 -8.163445 0.000000 -0.000001 -0.000001 -0.083329 2.660499 -15.925194 0.276567 1.780493 -17.658329 0.306067 1.870503 -18.583539 0.000001 0.000000 0.000001 0.130346 3.636590 -21.401537 0.396282 2.119867 -21.174529 0.286952 1.812741 -17.989333 -0.000002 -0.000002 -0.000001 0.452113 7.851168 13.834679 0.000000 0.000000 0.000000 5.909148 9.840621 61.120201 0.000012 23.315460 -0.000008 -0.695395 7.878866 -3.018679 -1.689568 -0.129791 -4.285262 12.722667 -29.827347 -15.983425 -15.499926 -3.442707 -12.729432 0.000003 0.000003 -0.000001 0.037490 1.312008 6.928884 0.220900 -1.418770 17.699896 0.047314 -0.662766 8.163871 -0.000001 0.000001 0.000001 -0.145118 -2.185773 15.152139 0.220034 -1.416042 17.664790 0.241623 -1.482048 18.517865 -0.000001 0.000001 -0.000001 0.022671 -3.061569 20.607564 0.316093 -1.688111 21.209614 0.227096 -1.437980 17.947970 0.000001 -0.000000 0.000003 -13.413149 11.398688 13.617901 22.254597 -11.162687 -0.852049 -10.141576 1.498714 -8.666229 -0.645827 -0.000000 -0.000001 0.000000 0.000000 -0.000000 -12.004869 -7.495638 -18.477531 22.575140 8.628964 4.830278 -11.701822 -2.013905 9.284990 0.000011 -0.000000 -0.000000 0.000000 -0.000000 0.000000 
-0.217893 33.463383 -0.541332 -0.316533 -0.890282 0.794096 0.601482 0.537046 0.185662 0.948881 0.543752 -0.047614 0.000000 0.000000 0.000000 0.949056 0.535716 -0.042374 1.780577 -1.212659 -0.622516 -4.885159 -7.647344 2.553905 0.000000 0.000000 0.000000 0.692008 -2.516173 -11.214365 0.000000 0.000000 0.000000 5.525717 -17.246014 -62.798863 -0.000014 -22.198164 -0.000018 -2.131739 -14.873362 7.452640 -0.830612 2.120671 4.786319 11.978249 25.349200 16.677307 -13.801789 3.030285 9.060976 -0.000001 0.000001 -0.000002 -0.041679 -0.942363 -8.576640 0.292459 1.829555 -18.162146 0.064848 0.870204 -8.523696 0.000000 -0.000000 0.000001 -0.100887 2.656974 -16.579861 0.299781 1.851702 -18.389878 0.322354 1.918250 -19.076257 -0.000002 -0.000001 -0.000001 0.107215 3.614060 -22.172273 0.424990 2.192506 -21.937825 0.298207 1.846987 -18.341297 -0.000000 -0.000001 -0.000000 0.449475 7.849645 13.856979 0.000000 0.000000 0.000000 6.043047 9.889814 61.153785 0.000004 23.361530 -0.000012 -0.730127 7.851451 -3.040916 -1.761845 -0.016389 -4.482726 12.765003 -29.795935 -15.566348 -15.349727 -3.115537 -12.805205 -0.000001 0.000002 -0.000000 0.036054 1.449434 7.219404 0.241908 -1.482942 18.529415 0.050895 -0.687182 8.466610 0.000003 0.000001 -0.000001 -0.172601 -2.126496 15.595321 0.236553 -1.466880 18.321207 0.246952 -1.497831 18.722413 -0.000005 0.000001 -0.000003 -0.002941 -3.013799 21.023054 0.338723 -1.745225 21.964244 0.230801 -1.449368 18.095065 -0.000001 0.000000 -0.000000 -13.373841 11.408339 13.620003 22.246244 -11.164452 -0.851960 -10.171155 1.515029 -8.669586 -0.655518 0.000004 -0.000002 -0.000000 0.000000 -0.000000 -11.986362 -7.488915 -18.472364 22.576932 8.623616 4.822165 -11.720305 -2.014781 9.291380 -0.000128 0.000004 0.000003 0.000000 0.000000 0.000000 
-0.218445 33.461582 -0.530624 -0.316535 -0.901803 0.790602 0.602703 0.542411 0.177770 0.952789 0.543752 -0.056660 0.000000 0.000000 0.000000 0.952979 0.540084 -0.051263 1.792711 -1.175588 -0.617547 -4.910367 -7.452491 2.543740 -0.000000 0.000000 -0.000000 0.691125 -2.553940 -11.273649 0.000000 0.000000 0.000000 5.631555 -17.345950 -62.656904 0.000001 -22.462035 0.000008 -2.273025 -14.267538 7.402785 -1.025771 2.075837 4.725331 12.125248 25.271034 16.226610 -13.792523 2.420711 9.090436 -0.000004 0.000003 -0.000003 -0.116555 -0.912131 -9.746201 0.322967 1.919988 -19.094419 0.073876 0.928441 -9.099091 -0.000002 0.000001 -0.000001 -0.130708 2.652284 -17.625337 0.338695 1.964824 -19.558428 0.349194 1.994178 -19.863266 -0.000002 0.000001 -0.000000 0.066868 3.579878 -23.403080 0.472874 2.307734 -23.157092 0.316583 1.901515 -18.903450 -0.000001 0.000001 -0.000001 0.446522 7.844602 13.940631 0.000000 0.000000 0.000000 6.222921 9.968906 61.098843 -0.000018 23.471776 0.000009 -0.775170 7.617303 -2.904969 -1.876948 0.163952 -4.797919 12.832648 -29.745774 -14.900252 -15.110600 -2.592534 -12.927073 0.000003 -0.000002 0.000005 0.030691 1.669087 7.683165 0.277372 -1.584807 19.854361 0.056854 -0.726102 8.950168 -0.000001 -0.000001 -0.000002 -0.218963 -2.032686 16.303134 0.264134 -1.547641 19.369682 0.255546 -1.522992 19.049085 -0.000001 -0.000001 -0.000001 -0.045735 -2.938342 21.686631 0.376360 -1.835796 23.169615 0.236791 -1.467550 18.330010 0.000000 -0.000001 -0.000000 -13.350586 11.411243 13.630087 22.267393 -11.168338 -0.854094 -10.215967 1.524695 -8.669755 -0.662191 0.000002 0.000001 0.000000 -0.000000 0.000000 -11.963621 -7.473106 -18.459640 22.594744 8.603473 4.810664 -11.752926 -2.021923 9.300341 -0.000156 0.000002 -0.000001 0.000000 0.000000 -0.000000 
-0.218567 33.456352 -0.521121 -0.311413 -0.904802 0.778773 0.610657 0.551038 0.176471 0.963187 0.543752 -0.069053 0.000000 0.000000 0.000000 0.963427 0.544779 -0.063333 1.815913 -1.132038 -0.633814 -5.016605 -7.264911 2.573067 -0.000000 0.000001 0.000000 0.687643 -2.578771 -11.358220 0.000000 0.000000 0.000000 5.493325 -17.548539 -62.451179 -0.000006 -22.646995 -0.000014 -2.648924 -12.978158 6.643933 -1.286870 2.016090 4.643074 12.319815 25.164954 15.624201 -13.785079 1.600827 9.118521 0.000000 0.000006 -0.000000 -0.218688 -0.869005 -11.311111 0.366073 2.040224 -20.342223 0.086881 1.006264 -9.869155 -0.000002 0.000002 0.000003 -0.173965 2.647929 -19.024222 0.394370 2.114907 -21.122512 0.386810 2.095242 -20.916616 0.000001 0.000002 0.000002 0.006473 3.537859 -25.049714 0.540779 2.460285 -24.789128 0.342017 1.974210 -19.655821 -0.000004 0.000000 -0.000002 0.440792 7.832458 14.103889 0.000000 0.000000 0.000000 6.457135 10.074931 60.890447 0.000009 23.759045 -0.000011 -0.923753 7.125587 -2.462963 -2.030399 0.403893 -5.219330 12.923274 -29.678777 -14.008970 -14.792089 -1.891838 -13.091748 0.000003 -0.000005 0.000001 0.017569 1.963277 8.303448 0.328534 -1.719788 21.627709 0.065326 -0.778112 9.597308 0.000003 -0.000001 0.000000 -0.285767 -1.908962 17.250211 0.303353 -1.654921 20.772926 0.267288 -1.556591 19.486304 0.000005 -0.000000 -0.000000 -0.106704 -2.839087 22.574472 0.429736 -1.955755 24.782904 0.244912 -1.491821 18.644412 0.000002 0.000002 0.000002 -13.375711 11.393922 13.653336 22.365369 -11.174960 -0.851374 -10.294491 1.536968 -8.666332 -0.659556 0.000003 0.000000 0.000000 0.000001 0.000000 -11.952435 -7.432005 -18.433284 22.646827 8.559975 4.792404 -11.803947 -2.031107 9.316526 0.000008 -0.000003 -0.000001 0.000000 0.000000 -0.000000 
